<svg data-v-423bf9ae="" xmlns="http://www.w3.org/2000/svg" viewBox="0 0 280 90" class="iconLeftSlogan"><!----><!----><!----><g data-v-423bf9ae="" id="c927019b-0ae8-4a2b-aa67-99a101ae0099" fill="black" transform="matrix(3.6697251131226998,0,0,3.6697251131226998,114.6848829691777,0.7706413805063441)"><path d="M4.28 5.53L4.28 5.53L4.28 5.53Q4.62 5.53 4.62 5.87L4.62 5.87L4.62 5.87Q4.62 6.23 4.52 6.64L4.52 6.64L4.52 6.64Q4.42 7.06 4.21 7.52L4.21 7.52L4.21 7.52Q3.81 8.43 3.12 8.43L3.12 8.43L3.12 8.43Q3.08 8.43 3.01 8.41L3.01 8.41L3.01 8.41Q2.94 8.39 2.74 8.32L2.74 8.32L2.74 8.32Q2.72 8.46 2.68 8.60L2.68 8.60L2.68 8.60Q2.65 8.75 2.60 8.92L2.60 8.92L2.60 8.95L2.60 8.95Q2.48 9.31 2.38 9.55L2.38 9.55L2.38 9.55Q2.28 9.79 2.20 9.93L2.20 9.93L2.20 9.93Q1.83 10.51 1.29 10.51L1.29 10.51L1.29 10.51Q0.62 10.51 0.29 9.84L0.29 9.84L0.29 9.84Q0 9.24 0 8.06L0 8.06L0 8.06Q0 6.66 0.22 6.12L0.22 6.12L0.22 6.03L0.22 6.03Q0.21 5.95 0.21 5.89L0.21 5.89L0.21 5.89Q0.21 5.82 0.21 5.77L0.21 5.77L0.21 5.75L0.21 5.75Q0.24 5.54 0.32 5.46L0.32 5.46L0.32 5.46Q0.34 5.40 0.36 5.28L0.36 5.28L0.36 5.28Q0.39 5.15 0.46 4.87L0.46 4.87L0.46 4.87Q0.50 4.66 0.59 4.54L0.59 4.54L0.59 4.54Q0.69 4.41 0.78 4.34L0.78 4.34L0.78 4.34Q0.88 4.27 0.98 4.25L0.98 4.25L0.98 4.25Q1.08 4.23 1.16 4.23L1.16 4.23L1.16 4.23Q1.60 4.23 2.09 4.59L2.09 4.59L2.09 4.59Q2.58 4.94 2.73 5.38L2.73 5.38L2.73 5.38Q2.74 5.43 2.77 5.54L2.77 5.54L2.77 5.54Q2.79 5.66 2.80 5.89L2.80 5.89L2.80 5.89Q2.81 6.12 2.83 6.51L2.83 6.51L2.83 6.51Q2.84 6.90 2.84 7.50L2.84 7.50L2.84 7.50Q2.91 7.56 3.01 7.56L3.01 7.56L3.01 7.56Q3.14 7.56 3.30 7.49L3.30 7.49L3.30 7.49Q3.46 7.42 3.61 7.10L3.61 7.10L3.61 7.10Q3.64 7.01 3.72 6.77L3.72 6.77L3.72 6.77Q3.79 6.52 3.92 5.95L3.92 5.95L3.92 5.95Q4.00 5.53 4.28 5.53ZM1.62 9.17L1.62 9.17L1.62 9.17Q1.83 8.71 1.90 8.45L1.90 8.45L1.90 8.45Q1.96 8.19 1.96 8.08L1.96 8.08L1.96 8.08Q1.96 7.88 1.93 7.62L1.93 7.62L1.93 7.62Q1.90 7.35 1.85 7.03L1.85 7.03L1.85 7.03Q1.76 6.58 1.74 6.41L1.74 6.41L1.74 6.41Q1.72 6.24 1.72 6.17L1.72 6.17L1.72 6.17Q1.72 6.10 1.72 6.02L1.72 6.02L1.72 6.02Q1.72 5.94 1.75 5.82L1.75 5.82L1.75 5.82Q1.76 5.71 1.76 5.63L1.76 5.63L1.76 5.63Q1.76 5.56 1.76 5.52L1.76 5.52L1.76 5.52Q1.76 5.32 1.69 5.26L1.69 5.26L1.69 5.26Q1.62 5.19 1.51 5.19L1.51 5.19L1.51 5.19Q1.50 5.21 1.46 5.26L1.46 5.26L1.46 5.26Q1.43 5.32 1.38 5.45L1.38 5.45L1.38 5.45Q1.33 5.59 1.27 5.82L1.27 5.82L1.27 5.82Q1.20 6.06 1.13 6.44L1.13 6.44L1.13 6.44Q1.02 7.03 0.97 7.47L0.97 7.47L0.97 7.47Q0.91 7.91 0.91 8.23L0.91 8.23L0.91 8.23Q0.91 8.43 0.92 8.67L0.92 8.67L0.92 8.67Q0.94 8.90 0.99 9.12L0.99 9.12L0.99 9.12Q1.04 9.34 1.12 9.48L1.12 9.48L1.12 9.48Q1.20 9.63 1.34 9.65L1.34 9.65L1.34 9.65Q1.37 9.62 1.44 9.53L1.44 9.53L1.44 9.53Q1.50 9.44 1.62 9.17ZM10.39 5.43L10.39 5.43L10.39 5.43Q10.50 5.43 10.60 5.52L10.60 5.52L10.60 5.52Q10.70 5.60 10.70 5.81L10.70 5.81L10.70 5.81Q10.70 5.85 10.69 5.94L10.69 5.94L10.69 5.94Q10.68 6.02 10.65 6.17L10.65 6.17L10.65 6.17Q10.63 6.33 10.57 6.57L10.57 6.57L10.57 6.57Q10.51 6.80 10.42 7.15L10.42 7.15L10.42 7.15Q10.26 7.67 10.11 8.15L10.11 8.15L10.11 8.15Q9.95 8.62 9.79 9.06L9.79 9.06L9.79 9.06Q9.31 10.35 8.64 10.35L8.64 10.35L8.64 10.35Q7.85 10.35 7.69 8.89L7.69 8.89L7.69 8.89Q7.67 8.89 7.67 8.88L7.67 8.88L7.67 8.54L7.67 8.54Q7.57 8.85 7.51 9.05L7.51 9.05L7.51 9.05Q7.45 9.25 7.41 9.35L7.41 9.35L7.41 9.35Q7.03 10.35 6.51 10.35L6.51 10.35L6.51 10.35Q6.38 10.35 6.26 10.30L6.26 10.30L6.26 10.30Q6.13 10.26 6.03 10.14L6.03 10.14L6.03 10.14Q5.92 10.01 5.85 9.79L5.85 9.79L5.85 9.79Q5.78 9.58 5.78 9.24L5.78 9.24L5.78 9.24Q5.78 9.06 5.87 8.05L5.87 8.05L5.87 8.05Q5.89 7.77 5.90 7.52L5.90 7.52L5.90 7.52Q5.91 7.27 5.92 7.04L5.92 7.04L5.92 7.04Q5.88 7.17 5.84 7.41L5.84 7.41L5.84 7.41Q5.53 8.95 5.40 9.37L5.40 9.37L5.40 9.37Q5.03 10.56 4.44 10.56L4.44 10.56L4.44 10.56Q4.21 10.56 4.09 10.39L4.09 10.39L4.09 10.39Q3.96 10.23 3.89 9.99L3.89 9.99L3.89 9.99Q3.82 9.74 3.80 9.45L3.80 9.45L3.80 9.45Q3.78 9.16 3.78 8.88L3.78 8.88L3.78 8.88Q3.78 8.72 3.79 8.48L3.79 8.48L3.79 8.48Q3.79 8.23 3.81 7.88L3.81 7.88L3.81 7.88Q3.82 7.59 3.82 7.38L3.82 7.38L3.82 7.38Q3.82 7.18 3.82 7.04L3.82 7.04L3.71 6.73L3.71 6.73Q3.70 6.72 3.70 6.68L3.70 6.68L3.70 6.68Q3.64 5.85 3.89 5.57L3.89 5.57L3.89 5.57Q4.03 5.43 4.23 5.43L4.23 5.43L4.23 5.43Q4.31 5.43 4.42 5.46L4.42 5.46L4.42 5.46Q4.52 5.49 4.61 5.57L4.61 5.57L4.61 5.57Q4.69 5.66 4.75 5.81L4.75 5.81L4.75 5.81Q4.82 5.96 4.82 6.22L4.82 6.22L4.82 6.22Q4.82 6.80 4.70 7.32L4.70 7.32L4.70 7.32Q4.61 7.76 4.61 8.40L4.61 8.40L4.61 8.40Q4.61 8.55 4.61 8.70L4.61 8.70L4.61 8.70Q4.61 8.85 4.62 8.99L4.62 8.99L4.62 8.99Q4.65 8.89 4.68 8.80L4.68 8.80L4.68 8.80Q4.70 8.71 4.73 8.61L4.73 8.61L4.73 8.61Q4.90 7.69 5.04 7.08L5.04 7.08L5.04 7.08Q5.18 6.47 5.32 6.12L5.32 6.12L5.32 6.12Q5.35 6.05 5.40 5.92L5.40 5.92L5.40 5.92Q5.46 5.78 5.55 5.65L5.55 5.65L5.55 5.65Q5.64 5.52 5.78 5.42L5.78 5.42L5.78 5.42Q5.91 5.32 6.09 5.32L6.09 5.32L6.09 5.32Q6.20 5.32 6.35 5.39L6.35 5.39L6.35 5.39Q6.50 5.46 6.61 5.70L6.61 5.70L6.61 5.70Q6.75 5.98 6.75 6.54L6.75 6.54L6.75 6.55L6.75 6.55Q6.68 7.20 6.64 7.71L6.64 7.71L6.64 7.71Q6.59 8.22 6.59 8.60L6.59 8.60L6.59 8.60Q6.59 8.75 6.60 8.84L6.60 8.84L6.60 8.84Q6.61 8.93 6.61 9.00L6.61 9.00L6.61 9.00Q6.69 8.89 6.83 8.54L6.83 8.54L6.83 8.54Q6.96 8.19 7.15 7.45L7.15 7.45L7.15 7.45Q7.31 6.87 7.39 6.52L7.39 6.52L7.39 6.52Q7.48 6.16 7.52 5.95L7.52 5.95L7.52 5.95Q7.56 5.74 7.56 5.66L7.56 5.66L7.56 5.66Q7.56 5.59 7.56 5.56L7.56 5.56L7.56 5.49L7.56 5.49Q7.59 5.39 7.69 5.27L7.69 5.27L7.69 5.27Q7.78 5.15 8.08 5.15L8.08 5.15L8.08 5.15Q8.33 5.15 8.76 5.43L8.76 5.43L8.76 5.43Q8.89 5.52 8.85 5.64L8.85 5.64L8.85 5.64Q8.48 7.39 8.48 8.53L8.48 8.53L8.48 8.53Q8.48 8.85 8.51 9.04L8.51 9.04L8.51 9.04Q8.53 9.23 8.55 9.32L8.55 9.32L8.55 9.32Q8.60 9.44 8.64 9.48L8.64 9.48L8.64 9.48Q8.65 9.48 8.70 9.45L8.70 9.45L8.70 9.45Q8.75 9.42 8.84 9.30L8.84 9.30L8.84 9.30Q8.93 9.18 9.06 8.93L9.06 8.93L9.06 8.93Q9.18 8.67 9.34 8.20L9.34 8.20L9.34 8.19L9.34 8.19Q9.35 8.18 9.38 8.09L9.38 8.09L9.38 8.09Q9.41 7.99 9.47 7.77L9.47 7.77L9.47 7.77Q9.53 7.55 9.64 7.15L9.64 7.15L9.64 7.15Q9.74 6.76 9.91 6.15L9.91 6.15L9.91 6.15Q9.94 6.08 9.96 5.99L9.96 5.99L9.96 5.99Q9.98 5.91 10.01 5.82L10.01 5.82L10.04 5.70L10.04 5.68L10.04 5.68Q10.14 5.43 10.39 5.43ZM14.24 5.49L14.24 5.49L14.24 5.49Q14.31 5.50 14.30 5.56L14.30 5.56L14.30 5.56Q14.29 5.63 14.29 5.92L14.29 5.92L14.29 5.92Q14.29 6.20 14.18 6.78L14.18 6.78L14.18 6.78Q14.07 7.35 13.79 8.25L13.79 8.25L13.79 8.25Q13.64 8.74 13.45 9.11L13.45 9.11L13.45 9.11Q13.27 9.49 13.13 9.74L13.13 9.74L13.13 9.74Q13.02 9.94 12.86 10.14L12.86 10.14L12.86 10.14Q12.70 10.33 12.46 10.33L12.46 10.33L12.46 10.33Q12.01 10.33 11.76 9.97L11.76 9.97L11.76 9.97Q11.72 9.90 11.67 9.82L11.67 9.82L11.67 9.82Q11.62 9.74 11.56 9.63L11.56 9.63L11.56 9.63Q11.20 10.64 10.54 10.64L10.54 10.64L10.54 10.64Q10.22 10.64 9.95 10.40L9.95 10.40L9.95 10.40Q9.45 9.88 9.49 8.23L9.49 8.23L9.49 8.23Q9.51 7.97 9.56 7.61L9.56 7.61L9.56 7.61Q9.62 7.25 9.70 6.85L9.70 6.85L9.70 6.85Q9.76 6.62 9.83 6.36L9.83 6.36L9.83 6.36Q9.91 6.09 10.00 5.82L10.00 5.82L10.00 5.82Q10.09 5.56 10.18 5.33L10.18 5.33L10.18 5.33Q10.26 5.11 10.33 4.97L10.33 4.97L10.33 4.97Q10.43 4.79 10.58 4.60L10.58 4.60L10.58 4.60Q10.72 4.41 10.93 4.41L10.93 4.41L10.93 4.41Q11.09 4.41 11.27 4.49L11.27 4.49L11.27 4.49Q11.45 4.56 11.61 4.70L11.61 4.70L11.61 4.70Q11.77 4.83 11.89 5.01L11.89 5.01L11.89 5.01Q12.01 5.19 12.04 5.39L12.04 5.39L12.04 5.39Q12.11 5.84 12.05 6.02L12.05 6.02L12.05 6.02Q12.00 6.20 11.94 6.29L11.94 6.29L11.94 6.29Q11.91 6.31 11.87 6.36L11.87 6.36L11.87 6.36Q11.82 6.40 11.75 6.42L11.75 6.42L11.75 6.42Q11.69 6.44 11.64 6.42L11.64 6.42L11.64 6.42Q11.59 6.40 11.58 6.30L11.58 6.30L11.58 6.30Q11.54 5.96 11.44 5.72L11.44 5.72L11.44 5.72Q11.34 5.47 11.16 5.45L11.16 5.45L11.16 5.45Q11.12 5.52 11.02 5.78L11.02 5.78L11.02 5.78Q10.92 6.05 10.74 6.69L10.74 6.69L10.74 6.69Q10.56 7.34 10.44 7.90L10.44 7.90L10.44 7.90Q10.36 8.57 10.36 9.28L10.36 9.28L10.36 9.28Q10.36 9.51 10.46 9.70L10.46 9.70L10.46 9.70Q10.49 9.76 10.56 9.79L10.56 9.79L10.56 9.79Q10.63 9.83 10.65 9.83L10.65 9.83L10.65 9.83Q10.71 9.83 10.84 9.59L10.84 9.59L10.84 9.59Q10.96 9.35 11.12 8.90L11.12 8.90L11.12 8.90Q11.27 8.50 11.31 8.15L11.31 8.15L11.31 8.15Q11.35 7.80 11.42 7.43L11.42 7.43L11.42 7.43Q11.45 7.32 11.47 7.22L11.47 7.22L11.47 7.22Q11.48 7.13 11.49 7.01L11.49 7.01L11.49 7.01Q11.51 6.90 11.49 6.86L11.49 6.86L11.49 6.86Q11.47 6.82 11.51 6.76L11.51 6.76L11.51 6.76Q11.55 6.71 11.60 6.71L11.60 6.71L11.60 6.71Q11.65 6.71 11.68 6.71L11.68 6.71L11.68 6.71Q11.70 6.71 11.75 6.71L11.75 6.71L11.75 6.71Q11.79 6.72 11.82 6.72L11.82 6.72L11.82 6.72Q11.87 6.72 11.91 6.75L11.91 6.75L11.91 6.75Q11.96 6.79 12.01 6.80L12.01 6.80L12.01 6.80Q12.07 6.82 12.10 6.84L12.10 6.84L12.10 6.84Q12.14 6.86 12.18 6.89L12.18 6.89L12.18 6.89Q12.24 6.90 12.29 6.93L12.29 6.93L12.29 6.93Q12.33 6.96 12.37 7L12.37 7L12.37 7Q12.40 7.04 12.38 7.10L12.38 7.10L12.38 7.10Q12.33 7.22 12.30 7.36L12.30 7.36L12.30 7.36Q12.26 7.50 12.24 7.64L12.24 7.64L12.24 7.64Q12.21 7.84 12.19 8.06L12.19 8.06L12.19 8.06Q12.17 8.29 12.14 8.50L12.14 8.50L12.14 8.50Q12.11 8.88 12.22 9.25L12.22 9.25L12.22 9.25Q12.28 9.41 12.31 9.46L12.31 9.46L12.31 9.46Q12.35 9.51 12.36 9.52L12.36 9.52L12.36 9.52Q12.38 9.52 12.40 9.48L12.40 9.48L12.40 9.48Q12.43 9.45 12.49 9.36L12.49 9.36L12.49 9.36Q12.54 9.27 12.63 9.09L12.63 9.09L12.63 9.09Q12.73 8.92 12.87 8.64L12.87 8.64L12.87 8.64Q13.15 8.06 13.28 7.59L13.28 7.59L13.28 7.59Q13.41 7.13 13.50 6.87L13.50 6.87L13.85 5.89L13.85 5.89Q13.87 5.78 13.95 5.62L13.95 5.62L13.95 5.62Q14.03 5.46 14.24 5.49ZM15.58 4.61L15.58 4.61L15.58 4.61Q15.78 4.61 15.98 4.67L15.98 4.67L15.98 4.67Q16.18 4.73 16.34 4.90L16.34 4.90L16.34 4.90Q16.51 5.07 16.61 5.37L16.61 5.37L16.61 5.37Q16.72 5.67 16.72 6.15L16.72 6.15L16.72 6.15Q16.72 6.89 16.62 7.59L16.62 7.59L16.62 7.59Q16.52 8.30 16.32 8.97L16.32 8.97L16.32 8.97Q15.88 10.56 15.18 10.56L15.18 10.56L15.18 10.56Q14.76 10.56 14.45 9.97L14.45 9.97L14.45 9.97Q14.32 10.09 14.17 10.09L14.17 10.09L14.17 10.09Q13.96 10.09 13.78 9.84L13.78 9.84L13.78 9.84Q13.62 9.60 13.62 9.39L13.62 9.39L13.62 9.39Q13.62 9.30 13.66 9.21L13.66 9.21L13.66 9.21Q13.62 6.97 13.96 4.16L13.96 4.16L13.96 4.16Q14.07 3.26 14.17 2.46L14.17 2.46L14.17 2.46Q14.28 1.67 14.38 0.90L14.38 0.90L14.38 0.90Q14.41 0.57 14.41 0.46L14.41 0.46L14.41 0.46Q14.41 0.35 14.41 0.34L14.41 0.34L14.38 0.25L14.42 0.18L14.42 0.18Q14.46 0.10 14.57 0.02L14.57 0.02L14.57 0.02Q14.69-0.06 14.90-0.06L14.90-0.06L14.99-0.06L14.99-0.06Q15.25-0.06 15.39 0.09L15.39 0.09L15.39 0.09Q15.54 0.24 15.54 0.52L15.54 0.52L15.54 0.52Q15.54 0.57 15.52 0.69L15.52 0.69L15.52 0.69Q15.50 0.81 15.43 1.09L15.43 1.09L15.43 1.09Q15.36 1.36 15.32 1.57L15.32 1.57L15.32 1.57Q15.27 1.78 15.25 1.96L15.25 1.96L15.25 1.96Q15.05 2.98 14.92 3.81L14.92 3.81L14.92 3.81Q14.80 4.65 14.71 5.31L14.71 5.31L14.71 5.31Q14.80 5.15 14.91 4.98L14.91 4.98L14.91 4.98Q15.18 4.61 15.58 4.61ZM15.53 8.86L15.53 8.86L15.53 8.86Q15.85 7.70 15.85 6.43L15.85 6.43L15.85 6.43Q15.85 5.82 15.78 5.62L15.78 5.62L15.78 5.62Q15.72 5.42 15.69 5.39L15.69 5.39L15.69 5.39Q15.67 5.40 15.62 5.46L15.62 5.46L15.62 5.46Q15.58 5.52 15.50 5.66L15.50 5.66L15.50 5.66Q15.43 5.80 15.33 6.03L15.33 6.03L15.33 6.03Q15.23 6.27 15.11 6.65L15.11 6.65L15.11 6.65Q14.87 7.34 14.75 7.93L14.75 7.93L14.75 7.93Q14.63 8.53 14.62 9.03L14.62 9.03L14.62 9.03Q14.76 9.20 14.95 9.51L14.95 9.51L14.95 9.51Q15.01 9.60 15.05 9.62L15.05 9.62L15.05 9.62Q15.09 9.63 15.11 9.63L15.11 9.63L15.11 9.63Q15.16 9.63 15.27 9.47L15.27 9.47L15.27 9.47Q15.39 9.31 15.53 8.86ZM18.73 5.49L18.73 5.49L18.73 5.49Q18.73 5.77 18.82 6.19L18.82 6.19L18.82 6.19Q18.91 6.61 19.10 7.20L19.10 7.20L19.10 7.20Q19.29 7.81 19.38 8.24L19.38 8.24L19.38 8.24Q19.46 8.67 19.46 8.93L19.46 8.93L19.46 8.93Q19.46 9.66 19.15 10.11L19.15 10.11L19.15 10.11Q18.80 10.63 18.30 10.63L18.30 10.63L18.30 10.63Q17.77 10.63 17.35 10.16L17.35 10.16L17.35 10.16Q17.05 9.86 17.05 9.55L17.05 9.55L17.05 9.55Q17.05 9.11 17.33 9.04L17.33 9.04L17.33 9.04Q17.35 9.04 17.35 9.04L17.35 9.04L17.35 9.04Q17.36 9.03 17.37 9.03L17.37 9.03L17.37 9.03Q17.44 9.03 17.56 9.09L17.56 9.09L17.56 9.09Q17.67 9.16 17.68 9.44L17.68 9.44L17.68 9.44Q17.88 9.84 18.05 9.84L18.05 9.84L18.05 9.84Q18.12 9.84 18.21 9.81L18.21 9.81L18.21 9.81Q18.30 9.77 18.38 9.62L18.38 9.62L18.38 9.62Q18.54 9.34 18.54 8.88L18.54 8.88L18.54 8.88Q18.54 8.33 18.26 7.36L18.26 7.36L18.26 7.35L18.26 7.35Q18.23 7.28 18.21 7.19L18.21 7.19L18.21 7.19Q18.19 7.10 18.16 7.01L18.16 7.01L18.16 7.01Q18.10 7.18 18.06 7.36L18.06 7.36L18.06 7.36Q18.02 7.53 17.96 7.70L17.96 7.70L17.96 7.71L17.96 7.71Q17.93 7.77 17.89 7.88L17.89 7.88L17.89 7.88Q17.85 7.99 17.78 8.10L17.78 8.10L17.78 8.10Q17.71 8.20 17.61 8.28L17.61 8.28L17.61 8.28Q17.51 8.36 17.37 8.36L17.37 8.36L17.37 8.36Q17.26 8.36 17.16 8.30L17.16 8.30L17.16 8.30Q17.01 8.23 17.07 8.08L17.07 8.08L17.07 8.08Q17.16 7.69 17.26 7.29L17.26 7.29L17.26 7.29Q17.36 6.90 17.46 6.52L17.46 6.52L17.46 6.52Q17.57 6.15 17.61 5.72L17.61 5.72L17.61 5.72Q17.65 5.29 17.65 4.82L17.65 4.82L17.65 4.82Q17.65 4.54 17.81 4.38L17.81 4.38L17.81 4.38Q17.96 4.21 18.24 4.21L18.24 4.21L18.24 4.21Q18.45 4.21 18.59 4.27L18.59 4.27L18.59 4.27Q18.72 4.33 18.78 4.40L18.78 4.40L18.78 4.40Q18.84 4.48 18.86 4.56L18.86 4.56L18.86 4.56Q18.89 4.63 18.89 4.69L18.89 4.69L18.89 4.69Q18.89 4.72 18.87 4.79L18.87 4.79L18.87 4.79Q18.86 4.86 18.80 5.07L18.80 5.07L18.80 5.07Q18.73 5.35 18.73 5.49ZM29.19 5.49L29.19 5.49L29.19 5.49Q29.25 5.49 29.24 5.56L29.24 5.56L29.24 5.56Q29.23 5.63 29.23 5.92L29.23 5.92L29.23 5.92Q29.23 6.44 28.63 8.26L28.63 8.26L28.63 8.26Q28.39 8.96 28.21 9.38L28.21 9.38L28.21 9.38Q28.03 9.80 27.88 10.02L27.88 10.02L27.88 10.02Q27.73 10.23 27.62 10.30L27.62 10.30L27.62 10.30Q27.50 10.37 27.40 10.37L27.40 10.37L27.40 10.37Q26.71 10.37 26.47 9.38L26.47 9.38L26.47 9.38Q26.22 9.93 26.05 10.14L26.05 10.14L26.05 10.14Q25.77 10.54 25.40 10.54L25.40 10.54L25.40 10.54Q25.23 10.54 25.00 10.44L25.00 10.44L25.00 10.44Q24.77 10.33 24.57 10.00L24.57 10.00L24.57 10.00Q24.28 9.52 24.28 8.76L24.28 8.76L24.28 8.76Q24.28 8.15 24.37 7.53L24.37 7.53L24.37 7.53Q24.47 6.90 24.71 6.12L24.71 6.12L24.71 6.12Q25.27 4.28 26.05 4.28L26.05 4.28L26.05 4.28Q26.33 4.28 26.64 4.55L26.64 4.55L26.64 4.55Q26.67 4.56 26.68 4.58L26.68 4.58L26.68 4.58Q26.68 4.59 26.71 4.61L26.71 4.61L26.71 4.61Q26.80 3.89 26.93 2.82L26.93 2.82L26.93 2.82Q27.06 1.75 27.24 0.45L27.24 0.45L27.24 0.45Q27.23 0.34 27.25 0.11L27.25 0.11L27.25 0.11Q27.27-0.11 27.47-0.20L27.47-0.20L27.51-0.21L27.83-0.21L27.83-0.21Q28.01-0.21 28.11-0.13L28.11-0.13L28.11-0.13Q28.20-0.06 28.27 0.07L28.27 0.07L28.27 0.07Q28.36 0.22 28.34 0.55L28.34 0.55L28.32 0.56L28.32 0.56Q28.20 1.22 28.06 1.90L28.06 1.90L28.06 1.90Q27.93 2.58 27.78 3.37L27.78 3.37L27.78 3.37Q27.76 3.49 27.67 4.18L27.67 4.18L27.67 4.18Q27.58 4.87 27.41 6.17L27.41 6.17L27.41 6.17Q27.16 8.09 27.16 8.65L27.16 8.65L27.16 8.65Q27.17 9.10 27.22 9.29L27.22 9.29L27.22 9.29Q27.27 9.48 27.30 9.53L27.30 9.53L27.30 9.53Q27.37 9.46 27.50 9.18L27.50 9.18L27.50 9.18Q27.64 8.89 27.94 8.19L27.94 8.19L27.94 8.19Q28.18 7.64 28.41 7.07L28.41 7.07L28.41 7.07Q28.63 6.50 28.78 5.99L28.78 5.99L28.78 5.99Q28.80 5.94 28.83 5.85L28.83 5.85L28.83 5.85Q28.85 5.77 28.90 5.68L28.90 5.68L28.90 5.68Q28.94 5.60 29.01 5.54L29.01 5.54L29.01 5.54Q29.08 5.49 29.19 5.49ZM26.46 6.41L26.46 6.40L26.46 6.40Q26.49 6.16 26.50 6.06L26.50 6.06L26.50 6.06Q26.52 5.96 26.52 5.85L26.52 5.85L26.52 5.85Q26.52 5.50 26.43 5.44L26.43 5.44L26.43 5.44Q26.33 5.38 26.28 5.38L26.28 5.38L26.28 5.38Q26.26 5.38 26.22 5.38L26.22 5.38L26.22 5.38Q26.17 5.38 26.08 5.46L26.08 5.46L26.08 5.46Q25.98 5.54 25.87 5.75L25.87 5.75L25.87 5.75Q25.75 5.95 25.61 6.37L25.61 6.37L25.61 6.37Q25.21 7.50 25.21 8.46L25.21 8.46L25.21 8.46Q25.21 8.81 25.23 9.04L25.23 9.04L25.23 9.04Q25.24 9.27 25.26 9.41L25.26 9.41L25.26 9.41Q25.28 9.55 25.31 9.61L25.31 9.61L25.31 9.61Q25.34 9.67 25.37 9.70L25.37 9.70L25.37 9.70Q25.47 9.76 25.58 9.55L25.58 9.55L25.58 9.55Q25.69 9.34 25.91 8.72L25.91 8.72L25.93 8.72L25.93 8.72Q26.22 7.97 26.39 7.21L26.39 7.21L26.39 7.21Q26.40 7.08 26.42 6.89L26.42 6.89L26.42 6.89Q26.43 6.69 26.46 6.41L26.46 6.41ZM32.23 5.49L32.23 5.49L32.23 5.49Q32.41 5.49 32.40 5.59L32.40 5.59L32.40 5.59Q32.38 5.70 32.38 5.87L32.38 5.87L32.38 5.87Q32.38 5.89 32.38 5.96L32.38 5.96L32.38 5.96Q32.37 6.02 32.34 6.13L32.34 6.13L32.34 6.13Q32.31 6.24 32.27 6.44L32.27 6.44L32.27 6.44Q32.23 6.64 32.14 6.93L32.14 6.93L32.14 6.93Q31.88 8.01 31.57 8.83L31.57 8.83L31.57 8.83Q31.42 9.24 31.27 9.53L31.27 9.53L31.27 9.53Q31.12 9.81 30.98 10.01L30.98 10.01L30.98 10.01Q30.60 10.54 30.03 10.54L30.03 10.54L30.03 10.54Q29.39 10.54 28.92 9.87L28.92 9.87L28.92 9.87Q28.50 9.24 28.50 8.34L28.50 8.34L28.50 8.34Q28.50 7.62 28.61 6.87L28.61 6.87L28.61 6.87Q28.71 6.13 28.88 5.54L28.88 5.54L28.88 5.54Q28.94 5.33 29.02 5.11L29.02 5.11L29.02 5.11Q29.09 4.89 29.20 4.70L29.20 4.70L29.20 4.70Q29.32 4.51 29.46 4.39L29.46 4.39L29.46 4.39Q29.60 4.27 29.79 4.27L29.79 4.27L29.79 4.27Q30.18 4.27 30.52 4.56L30.52 4.56L30.52 4.56Q30.67 4.72 30.77 4.94L30.77 4.94L30.77 4.94Q30.87 5.17 30.87 5.33L30.87 5.33L30.87 5.33Q30.87 5.61 30.81 5.95L30.81 5.95L30.81 5.95Q30.76 6.29 30.67 6.62L30.67 6.62L30.67 6.62Q30.59 6.94 30.49 7.22L30.49 7.22L30.49 7.22Q30.38 7.49 30.27 7.66L30.27 7.66L30.27 7.66Q30.20 7.78 30.07 7.91L30.07 7.91L30.07 7.91Q29.95 8.04 29.81 8.11L29.81 8.11L29.81 8.11Q29.68 8.19 29.56 8.20L29.56 8.20L29.56 8.20Q29.44 8.20 29.36 8.09L29.36 8.09L29.36 8.09Q29.33 8.20 29.34 8.39L29.34 8.39L29.34 8.39Q29.36 8.57 29.39 8.74L29.39 8.74L29.39 8.74Q29.41 8.92 29.46 9.07L29.46 9.07L29.46 9.07Q29.50 9.23 29.53 9.30L29.53 9.30L29.53 9.30Q29.64 9.53 29.82 9.65L29.82 9.65L29.82 9.65Q30.00 9.77 30.07 9.77L30.07 9.77L30.07 9.77Q30.21 9.77 30.35 9.56L30.35 9.56L30.35 9.56Q30.48 9.35 30.69 9.03L30.69 9.03L30.69 9.03Q30.93 8.65 31.22 7.97L31.22 7.97L31.22 7.97Q31.51 7.28 31.75 6.50L31.75 6.50L31.75 6.50Q31.79 6.34 31.83 6.20L31.83 6.20L31.83 6.20Q31.86 6.05 31.91 5.89L31.91 5.89L31.91 5.89Q31.98 5.49 32.23 5.49ZM30.03 5.19L30.03 5.19L30.03 5.19Q29.92 5.50 29.83 5.75L29.83 5.75L29.83 5.75Q29.74 5.99 29.65 6.22L29.65 6.22L29.65 6.22Q29.57 6.45 29.51 6.69L29.51 6.69L29.51 6.69Q29.46 6.93 29.44 7.22L29.44 7.22L29.44 7.22Q29.62 7.21 29.76 6.97L29.76 6.97L29.76 6.97Q29.89 6.73 29.93 6.54L29.93 6.54L29.93 6.54Q29.99 6.26 30.05 5.97L30.05 5.97L30.05 5.97Q30.11 5.68 30.11 5.38L30.11 5.38L30.11 5.38Q30.11 5.31 30.09 5.20L30.09 5.20L30.09 5.20Q30.07 5.10 30.03 5.19ZM32.89 5.49L32.89 5.49L32.89 5.49Q32.89 5.77 32.98 6.19L32.98 6.19L32.98 6.19Q33.07 6.61 33.25 7.20L33.25 7.20L33.25 7.20Q33.45 7.81 33.53 8.24L33.53 8.24L33.53 8.24Q33.61 8.67 33.61 8.93L33.61 8.93L33.61 8.93Q33.61 9.66 33.31 10.11L33.31 10.11L33.31 10.11Q32.96 10.63 32.45 10.63L32.45 10.63L32.45 10.63Q31.92 10.63 31.50 10.16L31.50 10.16L31.50 10.16Q31.21 9.86 31.21 9.55L31.21 9.55L31.21 9.55Q31.21 9.11 31.49 9.04L31.49 9.04L31.49 9.04Q31.50 9.04 31.51 9.04L31.51 9.04L31.51 9.04Q31.51 9.03 31.53 9.03L31.53 9.03L31.53 9.03Q31.60 9.03 31.71 9.09L31.71 9.09L31.71 9.09Q31.82 9.16 31.84 9.44L31.84 9.44L31.84 9.44Q32.03 9.84 32.20 9.84L32.20 9.84L32.20 9.84Q32.27 9.84 32.36 9.81L32.36 9.81L32.36 9.81Q32.45 9.77 32.54 9.62L32.54 9.62L32.54 9.62Q32.69 9.34 32.69 8.88L32.69 8.88L32.69 8.88Q32.69 8.33 32.41 7.36L32.41 7.36L32.41 7.35L32.41 7.35Q32.38 7.28 32.36 7.19L32.36 7.19L32.36 7.19Q32.34 7.10 32.31 7.01L32.31 7.01L32.31 7.01Q32.26 7.18 32.21 7.36L32.21 7.36L32.21 7.36Q32.17 7.53 32.12 7.70L32.12 7.70L32.12 7.71L32.12 7.71Q32.09 7.77 32.05 7.88L32.05 7.88L32.05 7.88Q32.00 7.99 31.93 8.10L31.93 8.10L31.93 8.10Q31.86 8.20 31.77 8.28L31.77 8.28L31.77 8.28Q31.67 8.36 31.53 8.36L31.53 8.36L31.53 8.36Q31.42 8.36 31.32 8.30L31.32 8.30L31.32 8.30Q31.16 8.23 31.22 8.08L31.22 8.08L31.22 8.08Q31.32 7.69 31.42 7.29L31.42 7.29L31.42 7.29Q31.51 6.90 31.61 6.52L31.61 6.52L31.61 6.52Q31.72 6.15 31.77 5.72L31.77 5.72L31.77 5.72Q31.81 5.29 31.81 4.82L31.81 4.82L31.81 4.82Q31.81 4.54 31.96 4.38L31.96 4.38L31.96 4.38Q32.12 4.21 32.40 4.21L32.40 4.21L32.40 4.21Q32.61 4.21 32.74 4.27L32.74 4.27L32.74 4.27Q32.87 4.33 32.94 4.40L32.94 4.40L32.94 4.40Q33.00 4.48 33.02 4.56L33.02 4.56L33.02 4.56Q33.04 4.63 33.04 4.69L33.04 4.69L33.04 4.69Q33.04 4.72 33.03 4.79L33.03 4.79L33.03 4.79Q33.01 4.86 32.96 5.07L32.96 5.07L32.96 5.07Q32.89 5.35 32.89 5.49ZM36.20 9.66L36.20 9.66L36.20 9.66Q35.84 10.44 35.31 10.44L35.31 10.44L35.31 10.44Q35.13 10.44 34.91 10.35L34.91 10.35L34.91 10.35Q34.69 10.25 34.50 9.93L34.50 9.93L34.50 9.93Q34.37 9.69 34.30 9.40L34.30 9.40L34.30 9.40Q34.23 9.11 34.23 8.75L34.23 8.75L34.23 8.75Q34.23 8.44 34.36 7.07L34.36 7.07L34.36 7.07Q34.43 6.40 34.45 5.99L34.45 5.99L34.45 5.99Q34.48 5.57 34.48 5.43L34.48 5.43L34.48 5.43Q34.48 5.29 34.48 5.22L34.48 5.22L34.48 5.22Q34.48 5.15 34.52 5.12L34.52 5.12L34.52 5.12Q34.57 5.10 34.67 5.11L34.67 5.11L34.67 5.11Q34.78 5.12 34.99 5.17L34.99 5.17L34.99 5.17Q35.38 5.24 35.48 5.35L35.48 5.35L35.48 5.35Q35.59 5.46 35.59 5.54L35.59 5.54L35.59 5.54Q35.59 5.59 35.57 5.67L35.57 5.67L35.57 5.67Q35.55 5.75 35.52 5.85L35.52 5.85L35.52 5.85Q35.49 5.95 35.47 6.03L35.47 6.03L35.47 6.03Q35.45 6.12 35.45 6.15L35.45 6.15L35.45 6.15Q35.42 6.26 35.37 6.55L35.37 6.55L35.37 6.55Q35.32 6.85 35.25 7.17L35.25 7.17L35.25 7.17Q35.17 7.62 35.13 7.99L35.13 7.99L35.13 7.99Q35.10 8.36 35.10 8.78L35.10 8.78L35.10 8.78Q35.10 8.85 35.10 8.97L35.10 8.97L35.10 8.97Q35.11 9.10 35.13 9.23L35.13 9.23L35.13 9.23Q35.15 9.37 35.20 9.46L35.20 9.46L35.20 9.46Q35.25 9.56 35.34 9.58L35.34 9.58L35.34 9.58Q35.36 9.56 35.45 9.44L35.45 9.44L35.45 9.44Q35.53 9.32 35.67 8.96L35.67 8.96L35.67 8.96Q35.70 8.88 35.87 8.50L35.87 8.50L35.87 8.50Q36.04 8.12 36.25 7.45L36.25 7.45L36.25 7.45Q36.32 7.22 36.43 6.90L36.43 6.90L36.43 6.90Q36.54 6.58 36.67 6.13L36.67 6.13L36.67 6.13Q36.68 6.08 36.71 5.99L36.71 5.99L36.71 5.99Q36.74 5.89 36.78 5.81L36.78 5.81L36.78 5.81Q36.82 5.73 36.89 5.67L36.89 5.67L36.89 5.67Q36.96 5.61 37.07 5.61L37.07 5.61L37.07 5.61Q37.11 5.61 37.18 5.68L37.18 5.68L37.18 5.68Q37.24 5.74 37.24 6.03L37.24 6.03L37.24 6.03Q37.24 6.10 37.23 6.22L37.23 6.22L37.23 6.22Q37.21 6.34 37.16 6.59L37.16 6.59L37.16 6.59Q37.10 6.83 36.99 7.21L36.99 7.21L36.99 7.21Q36.89 7.59 36.71 8.18L36.71 8.18L36.71 8.18Q36.51 8.81 36.39 9.16L36.39 9.16L36.39 9.16Q36.27 9.52 36.20 9.66ZM35.34 4.55L35.34 4.55L35.34 4.55Q34.97 4.55 34.76 4.27L34.76 4.27L34.76 4.27Q34.54 4.00 34.54 3.72L34.54 3.72L34.54 3.72Q34.54 3.49 34.76 3.26L34.76 3.26L34.76 3.26Q35.01 3.04 35.21 3.04L35.21 3.04L35.21 3.04Q35.55 3.04 35.73 3.23L35.73 3.23L35.73 3.23Q35.91 3.43 35.91 3.79L35.91 3.79L35.91 3.79Q35.91 4.05 35.85 4.20L35.85 4.20L35.85 4.20Q35.78 4.35 35.69 4.43L35.69 4.43L35.69 4.43Q35.59 4.51 35.49 4.53L35.49 4.53L35.49 4.53Q35.39 4.55 35.34 4.55ZM40.38 10.70L40.38 10.70L40.38 10.70Q40.66 10.70 40.82 10.76L40.82 10.76L40.82 10.76Q40.99 10.82 41.08 10.91L41.08 10.91L41.08 10.91Q41.17 11.00 41.20 11.10L41.20 11.10L41.20 11.10Q41.23 11.20 41.23 11.28L41.23 11.28L41.23 11.28Q41.23 11.33 41.22 11.40L41.22 11.40L41.22 11.40Q41.20 11.48 41.15 11.56L41.15 11.56L41.15 11.56Q41.10 11.63 41.00 11.69L41.00 11.69L41.00 11.69Q40.89 11.75 40.71 11.75L40.71 11.75L40.71 11.75Q40.46 11.75 40.12 11.58L40.12 11.58L40.12 11.58Q39.65 11.58 39.42 11.59L39.42 11.59L39.42 11.59Q39.19 11.61 39.09 11.62L39.09 11.62L39.09 12.68L39.09 12.68Q39.09 14.34 38.70 15.12L38.70 15.12L38.70 15.12Q38.18 16.14 36.86 16.14L36.86 16.14L36.86 16.14Q35.80 16.14 35.01 15.40L35.01 15.40L35.01 15.40Q34.22 14.64 34.22 13.66L34.22 13.66L34.22 13.66Q34.22 12.91 34.94 12.31L34.94 12.31L34.94 12.31Q35.64 11.73 37.02 11.27L37.02 11.27L37.03 11.26L37.03 11.26Q37.27 11.20 37.55 11.13L37.55 11.13L37.55 11.13Q37.84 11.06 38.18 10.95L38.18 10.95L38.18 10.95Q38.15 10.75 38.14 10.39L38.14 10.39L38.14 10.39Q38.12 10.30 38.12 10.22L38.12 10.22L38.12 10.22Q38.11 10.14 38.11 10.07L38.11 10.07L38.11 10.07Q37.79 10.65 37.38 10.65L37.38 10.65L37.38 10.65Q36.83 10.65 36.48 10.11L36.48 10.11L36.48 10.11Q36.18 9.62 36.18 8.83L36.18 8.83L36.18 8.83Q36.18 8.30 36.30 7.67L36.30 7.67L36.30 7.67Q36.41 7.03 36.65 6.19L36.65 6.19L36.65 6.19Q36.76 5.74 36.88 5.43L36.88 5.43L36.88 5.43Q37.00 5.12 37.11 4.89L37.11 4.89L37.11 4.89Q37.21 4.70 37.36 4.51L37.36 4.51L37.36 4.51Q37.51 4.33 37.72 4.33L37.72 4.33L37.72 4.33Q37.87 4.33 38.05 4.40L38.05 4.40L38.05 4.40Q38.23 4.48 38.40 4.61L38.40 4.61L38.40 4.61Q38.56 4.75 38.67 4.93L38.67 4.93L38.67 4.93Q38.79 5.11 38.82 5.31L38.82 5.31L38.82 5.31Q38.89 5.75 38.84 5.94L38.84 5.94L38.84 5.94Q38.78 6.12 38.72 6.20L38.72 6.20L38.72 6.20Q38.70 6.23 38.65 6.27L38.65 6.27L38.65 6.27Q38.60 6.31 38.54 6.33L38.54 6.33L38.54 6.33Q38.47 6.36 38.42 6.33L38.42 6.33L38.42 6.33Q38.37 6.31 38.36 6.22L38.36 6.22L38.36 6.22Q38.32 5.88 38.22 5.63L38.22 5.63L38.22 5.63Q38.12 5.39 37.94 5.36L37.94 5.36L37.94 5.36Q37.90 5.43 37.80 5.70L37.80 5.70L37.80 5.70Q37.70 5.96 37.52 6.61L37.52 6.61L37.52 6.61Q37.31 7.38 37.20 7.97L37.20 7.97L37.20 7.97Q37.10 8.57 37.10 9.10L37.10 9.10L37.10 9.10Q37.10 9.53 37.16 9.70L37.16 9.70L37.16 9.70Q37.21 9.87 37.27 9.87L37.27 9.87L37.27 9.87Q37.27 9.87 37.32 9.85L37.32 9.85L37.32 9.85Q37.37 9.83 37.46 9.69L37.46 9.69L37.46 9.69Q37.56 9.55 37.70 9.26L37.70 9.26L37.70 9.26Q37.83 8.97 38.00 8.44L38.00 8.44L38.00 8.44Q38.08 8.18 38.15 7.96L38.15 7.96L38.15 7.96Q38.22 7.74 38.27 7.55L38.27 7.55L38.27 7.55Q38.32 7.36 38.35 7.18L38.35 7.18L38.35 7.18Q38.39 7 38.42 6.80L38.42 6.80L38.42 6.80Q38.43 6.69 38.41 6.65L38.41 6.65L38.41 6.65Q38.39 6.61 38.43 6.55L38.43 6.55L38.43 6.55Q38.47 6.50 38.52 6.50L38.52 6.50L38.52 6.50Q38.57 6.50 38.60 6.50L38.60 6.50L38.60 6.50Q38.63 6.50 38.67 6.50L38.67 6.50L38.67 6.50Q38.71 6.51 38.74 6.51L38.74 6.51L38.74 6.51Q38.79 6.51 38.84 6.54L38.84 6.54L38.84 6.54Q38.88 6.58 38.93 6.59L38.93 6.59L38.93 6.59Q38.99 6.61 39.02 6.63L39.02 6.63L39.02 6.63Q39.06 6.65 39.10 6.68L39.10 6.68L39.10 6.68Q39.16 6.69 39.21 6.72L39.21 6.72L39.21 6.72Q39.26 6.75 39.29 6.79L39.29 6.79L39.29 6.79Q39.33 6.83 39.30 6.89L39.30 6.89L39.30 6.89Q39.17 7.31 39.09 7.81L39.09 7.81L39.09 7.81Q39.00 8.26 38.97 8.62L38.97 8.62L38.97 8.62Q38.93 8.97 38.93 9.34L38.93 9.34L38.93 9.34Q38.93 9.63 39.02 10.78L39.02 10.78L39.02 10.78Q39.96 10.70 40.38 10.70ZM36.72 15.27L36.72 15.27L36.72 15.27Q38.30 15.27 38.30 12.78L38.30 12.78L38.30 12.78Q38.30 12.75 38.29 12.56L38.29 12.56L38.29 12.56Q38.28 12.36 38.25 11.75L38.25 11.75L38.25 11.75Q37.51 11.77 37.07 11.94L37.07 11.94L37.07 11.94Q36.32 12.25 35.73 12.73L35.73 12.73L35.73 12.73Q35.07 13.27 35.07 13.79L35.07 13.79L35.07 13.79Q35.07 14.38 35.57 14.81L35.57 14.81L35.57 14.81Q36.09 15.27 36.72 15.27ZM44.59 5.60L44.59 5.60L44.59 5.60Q44.65 5.60 44.78 5.66L44.78 5.66L44.78 5.66Q44.91 5.73 44.91 6.02L44.91 6.02L44.91 6.02Q44.91 6.48 44.37 8.12L44.37 8.12L44.37 8.12Q44.02 9.20 43.71 9.80L43.71 9.80L43.71 9.80Q43.37 10.44 43.02 10.44L43.02 10.44L43.02 10.44Q42.28 10.44 42.07 9.21L42.07 9.21L42.07 9.21Q42.03 9.02 41.99 8.68L41.99 8.68L41.99 8.68Q41.96 8.34 41.93 7.85L41.93 7.85L41.93 7.85Q41.85 8.20 41.73 8.63L41.73 8.63L41.73 8.63Q41.62 9.06 41.48 9.58L41.48 9.58L41.48 9.58Q41.45 9.65 41.41 9.78L41.41 9.78L41.41 9.78Q41.37 9.91 41.30 10.04L41.30 10.04L41.30 10.04Q41.23 10.18 41.11 10.28L41.11 10.28L41.11 10.28Q40.99 10.37 40.82 10.37L40.82 10.37L40.82 10.37Q40.74 10.37 40.62 10.35L40.62 10.35L40.62 10.35Q40.50 10.32 40.39 10.23L40.39 10.23L40.39 10.23Q40.28 10.15 40.19 10.00L40.19 10.00L40.19 10.00Q40.10 9.84 40.05 9.58L40.05 9.58L40.05 9.56L40.05 9.56Q40.04 9.28 40.03 8.99L40.03 8.99L40.03 8.99Q40.01 8.71 40.00 8.43L40.00 8.43L40.00 8.43Q39.96 7.81 40.00 7.21L40.00 7.21L40.00 7.21Q40.01 6.99 40.02 6.87L40.02 6.87L40.02 6.87Q40.03 6.76 40.04 6.71L40.04 6.71L39.93 6.47L39.93 6.47Q39.90 6.41 39.90 6.37L39.90 6.37L39.90 6.37Q39.93 6.06 39.95 5.94L39.95 5.94L39.95 5.94Q39.97 5.82 40.00 5.77L40.00 5.77L40.00 5.77Q40.12 5.40 40.56 5.40L40.56 5.40L40.56 5.40Q40.80 5.40 40.92 5.53L40.92 5.53L40.92 5.53Q41.05 5.66 41.05 5.87L41.05 5.87L41.05 5.87Q41.05 5.89 41.03 5.96L41.03 5.96L41.03 5.96Q41.02 6.02 40.95 6.27L40.95 6.27L40.95 6.27Q40.91 6.41 40.88 6.52L40.88 6.52L40.88 6.52Q40.85 6.64 40.85 6.75L40.85 6.75L40.85 6.75Q40.85 6.90 40.85 7.13L40.85 7.13L40.85 7.13Q40.85 7.35 40.84 7.63L40.84 7.63L40.84 7.63Q40.84 7.91 40.83 8.09L40.83 8.09L40.83 8.09Q40.82 8.27 40.82 8.36L40.82 8.36L40.82 8.36Q40.82 8.83 40.87 9.02L40.87 9.02L40.87 9.00L40.87 9.00Q40.98 8.60 41.05 8.32L41.05 8.32L41.05 8.32Q41.12 8.04 41.19 7.85L41.19 7.85L41.19 7.85Q41.61 6.55 41.69 5.57L41.69 5.57L41.69 5.57Q41.73 4.83 41.99 4.68L41.99 4.68L41.99 4.68Q42.04 4.63 42.11 4.63L42.11 4.63L42.11 4.63Q42.70 4.68 42.88 4.89L42.88 4.89L42.88 4.89Q43.06 5.11 43.06 5.32L43.06 5.32L43.06 5.36L43.06 5.36Q43.05 5.39 43.02 5.59L43.02 5.59L43.02 5.59Q42.99 5.78 42.90 6.36L42.90 6.36L42.90 6.36Q42.83 6.86 42.78 7.29L42.78 7.29L42.78 7.29Q42.74 7.71 42.74 8.08L42.74 8.08L42.74 8.08Q42.74 8.54 42.77 8.82L42.77 8.82L42.77 8.82Q42.80 9.10 42.84 9.25L42.84 9.25L42.84 9.25Q42.88 9.39 42.92 9.44L42.92 9.44L42.92 9.44Q42.95 9.49 42.97 9.49L42.97 9.49L42.97 9.49Q42.98 9.48 43.03 9.43L43.03 9.43L43.03 9.43Q43.08 9.38 43.16 9.23L43.16 9.23L43.16 9.23Q43.25 9.07 43.37 8.79L43.37 8.79L43.37 8.79Q43.50 8.51 43.65 8.05L43.65 8.05L43.65 8.05Q43.81 7.56 43.93 7.10L43.93 7.10L43.93 7.10Q44.06 6.64 44.16 6.22L44.16 6.22L44.16 6.22Q44.21 5.98 44.30 5.79L44.30 5.79L44.30 5.79Q44.39 5.60 44.59 5.60Z"></path></g><!----><g data-v-423bf9ae="" id="6bed885e-fd1b-4aaf-8f87-1605c51b667f" transform="matrix(1.1119897613627183,0,0,1.1119897613627183,-9.330636636687224,-12.306024563689874)" stroke="none" fill="black"><path d="M49.178 75.021s4.028-6.877 20.29-10.734c1.058.273 2.256.424 3.572.424a18.2 18.2 0 0 0 2.436-.167c2.412-.325 4.648-1.103 6.296-2.188 2.806-1.848 2.986-3.896 2.843-4.952-.379-2.812-3.625-4.628-8.27-4.628-.798 0-1.617.056-2.435.167-5.749.776-9.593 3.778-9.14 7.14.096.71.376 1.356.814 1.926-1.421.29-10.77 2.337-15.403 6.843l-35.848 1.452L8.824 73.8s37.393 2.791 40.354 1.221zm25.268-18.113c.642-.086 1.281-.13 1.9-.13 2.724 0 4.167.835 4.305 1.144-.07.575-2.098 2.173-5.709 2.66-.642.086-1.281.13-1.9.13-2.725 0-4.168-.835-4.305-1.143.069-.575 2.097-2.174 5.709-2.661zm-28.814 14.69c.337-.213.762-.146.951.15.188.297.068.711-.269.925-.335.213-.761.146-.949-.151-.189-.297-.068-.711.267-.924z"></path><path d="M93.922 69.793c-.399-2.902-2.991-4.374-7.702-4.374-2.701 0-5.982.422-9.682.932-5.617.774-10.675 1.482-12.874 3.863l-9.833 1.604-.271.022c-3.119 2.237-4.153 3.996-4.153 3.996-2.232 1.184-24.026-.111-34.623-.821l-5.181.424 5.669 3.332 16.298-.661c-.288 1.24-1.272 5.152-2.765 7.635l6.093 1.817s.601-.766 1.172-2.511l-2.479-.619a.25.25 0 0 1 .121-.485l2.496.623c.005.001.007.007.012.009.22-.75.424-1.661.581-2.732l-2.754-.217a.249.249 0 0 1-.229-.269.259.259 0 0 1 .269-.229l2.77.218c.004 0 .006.005.011.005.127-1.015.207-2.169.215-3.469l12.297-.499s10.404-2.572 12.94-1.92c.222.057.424.046.617.007 1.385 3.311 6.049 5.382 12.431 5.382 1.329 0 2.695-.095 4.061-.283 3.953-.545 7.596-1.823 10.257-3.597 3.086-2.059 4.591-4.61 4.236-7.183zm-57.305 9.926h-.001l-1.901-.011a.25.25 0 0 1 .001-.5h.001l1.901.011a.25.25 0 0 1-.001.5zm50.849-6.071c-2.137 1.425-5.266 2.505-8.584 2.962a25.901 25.901 0 0 1-3.515.246c-5.185 0-8.628-1.707-8.846-3.288-.244-1.766 5.498-2.557 10.564-3.255 3.551-.49 6.689-.895 9.136-.895 2.194 0 3.662.361 3.739.92.128.931-.828 2.199-2.494 3.31zM40.7 46.567c.888 2.351.081 6.27 2.353 7.991 0 0 1.531-1.391 2.116-2.057s.323-1.499.323-1.499c-.668-.376-.775-.604-2.108-1.646-1.883-1.472-2.749-2.533-2.562-3.431l-.122.642zM32.072 50.807c4.143-2.982 1.594-6.523-2.549-3.542C25.38 50.247 10.01 63.978 10.01 63.978l.017.023c0 .001 17.902-10.213 22.045-13.194zM29.08 49.04l1.725-1.241a1 1 0 1 1 1.168 1.624l-1.725 1.241a.997.997 0 0 1-1.395-.228 1 1 0 0 1 .227-1.396z"></path><ellipse cx="78.009" cy="13.912" rx="8.616" ry="2.25"></ellipse><path d="M78.009 19.838c4.758 0 8.616-1.007 8.616-2.25v-2.76c0 1.243-3.857 2.25-8.616 2.25-4.436 0-8.084-.875-8.56-2.001l-.056.001v2.51c.001 1.243 3.858 2.25 8.616 2.25zM78.009 45.703c4.758 0 8.616-1.007 8.616-2.25v-2.76c0 1.243-3.857 2.25-8.616 2.25-4.436 0-8.084-.875-8.56-2.001l-.056.001v2.51c.001 1.242 3.858 2.25 8.616 2.25z"></path><path d="M78.009 41.977c4.758 0 8.616-1.007 8.616-2.25 0-.509-.652-.978-1.745-1.355v.943l-.25.089c-.128.045-3.182 1.117-6.86 1.117-3.691 0-6.272-1.079-6.38-1.125l-.229-.097v-.933c-1.105.378-1.767.85-1.768 1.362.001 1.241 3.858 2.249 8.616 2.249z"></path><path d="M71.859 37.531v1.219c.699.255 2.99 1.02 5.912 1.02 2.959 0 5.563-.741 6.36-.992v-1.204h.014v-17.63c-1.459.499-3.666.817-6.134.817-2.479 0-4.692-.321-6.151-.823v17.593zm.688-14.786c3.691.68 7.524.37 10.785-.021.195-.031.362.126.382.331.021.206-.116.392-.306.414-1.89.227-3.969.426-6.107.426-1.609 0-3.25-.113-4.872-.411-.188-.035-.315-.229-.283-.433.034-.204.214-.344.401-.306zm0 3.359c3.691.68 7.524.371 10.785-.021.195-.026.362.126.382.331.021.206-.116.392-.306.414-1.89.227-3.969.426-6.107.426-1.609 0-3.25-.113-4.872-.411-.188-.035-.315-.229-.283-.433.034-.204.214-.343.401-.306zm0 3.358c3.691.681 7.524.371 10.785-.021.195-.027.362.125.382.331.021.206-.116.392-.306.414-1.89.227-3.969.426-6.107.426-1.609 0-3.25-.113-4.872-.411-.188-.035-.315-.229-.283-.433.034-.203.214-.341.401-.306zm0 3.36c3.691.68 7.524.37 10.785-.021.195-.03.362.126.382.331.021.206-.116.392-.306.414-1.89.227-3.969.426-6.107.426-1.609 0-3.25-.113-4.872-.411-.188-.035-.315-.229-.283-.433.034-.203.214-.34.401-.306zm0 3.359c3.691.68 7.524.371 10.785-.021.195-.031.362.126.382.331.021.206-.116.392-.306.414-1.89.227-3.969.426-6.107.426-1.609 0-3.25-.113-4.872-.411-.188-.035-.315-.229-.283-.433.034-.204.214-.344.401-.306zM26.544 90.215l7.231 2.383 1.915-4.308-7.817-2.136zM32.66 40.241l-.075-1.998a.25.25 0 0 1 .241-.259c.149.01.254.103.259.241l.078 2.065c.001.043-.024.076-.042.112.57.199 1.155.387 1.753.562l-.028-1.691a.25.25 0 0 1 .246-.254h.004a.25.25 0 0 1 .25.246l.03 1.842c.562.158 1.129.307 1.698.449l-.021-1.84a.25.25 0 0 1 .247-.253c.145-.024.251.109.253.247l.022 1.903c0 .023-.019.039-.024.061a98.1 98.1 0 0 0 1.336.316l.396-1.888a.25.25 0 1 1 .489.103l-.398 1.896c.486.111.967.219 1.434.324l.331-1.937a.251.251 0 0 1 .494.084l-.336 1.963c.808.183 1.579.361 2.279.541 0 0 .338-.085.857-.236a.24.24 0 0 1-.021-.154l.342-1.302a.25.25 0 0 1 .483.127l-.31 1.181c1.549-.476 4.009-1.351 5.074-2.394.633-.62-.478-1.498-.478-1.498-2.338-1.452-8.412-2.114-10.779-2.665-3.833-.787-9.986-2.505-10.666-6.981a7.84 7.84 0 0 1-.127-1.203l.015-.613s-1.161 9.316.598 10.743c1.07.87 2.5 1.571 4.096 2.16zm10.4.66a.25.25 0 1 1 .493.081l-.254 1.546a.249.249 0 0 1-.287.206.25.25 0 0 1-.206-.287l.254-1.546zm-11.683-4.085a.254.254 0 0 1 .27.228l.179 2.109a.25.25 0 0 1-.228.27l-.021.001a.25.25 0 0 1-.249-.229l-.179-2.109a.25.25 0 0 1 .228-.27zm-1.513-.538c.005-.138.1-.246.259-.241a.25.25 0 0 1 .241.259l-.084 2.266a.25.25 0 0 1-.25.241h-.009a.25.25 0 0 1-.241-.259l.084-2.266z"></path><path d="M31.349 32.679c.399-.47.832-.955 1.291-1.421l-.012.002a.249.249 0 0 1-.233-.161l-.862-2.256a.25.25 0 0 1 .467-.179l.862 2.256c.015.04.002.079-.003.119.301-.297.613-.583.933-.85-.016-.02-.038-.034-.047-.059l-.915-2.303a.251.251 0 0 1 .14-.325.252.252 0 0 1 .325.14l.888 2.235a9.34 9.34 0 0 1 .84-.575c-.011-.02-.031-.032-.037-.055l-.592-2.214a.25.25 0 1 1 .483-.129l.577 2.157c.744-.38 1.512-.598 2.286-.551.69-4.531 4.113-4.63 4.698-4.637 3.998-.042 5.288.605 7.268 1.788.701.419.066 2.78.625 2.841.39.042.699.101.963.169v-.938a.25.25 0 0 1 .5 0v1.098c.259.099.483.206.717.315V27.95a.25.25 0 0 1 .5 0v1.41s3.676-.7 3.183-4.383c-.409-3.053-3.668-4.31-9.168-5.291-5.446-.972-16.292.558-18.547 7.01 0 0-.185 2.094.69 3.719s2.18 2.264 2.18 2.264zm4.929-6.408a.252.252 0 0 1 .306.177l.452 1.69a.25.25 0 1 1-.483.128l-.452-1.69a.25.25 0 0 1 .177-.305zm-5.896 3.4a.251.251 0 0 1 .345.079l1.204 1.92a.25.25 0 0 1-.424.266l-1.204-1.92a.25.25 0 0 1 .079-.345z"></path><path d="M53.817 29.484c-.876.491-1.984.894-3.339 1.184-2.278.609-12.718-.051-11.618-3.777-.108.377-1.406 4.979-1.028 7.937l1.64.371.002-.877a.25.25 0 0 1 .25-.25.25.25 0 0 1 .25.25l-.003.99 1.015.229.314-1.25a.25.25 0 1 1 .486.122l-.312 1.238 1.547.349-.152-1.547a.25.25 0 0 1 .225-.273.256.256 0 0 1 .273.225l.168 1.712 1.124.254.001-1.366a.25.25 0 0 1 .5 0l-.001 1.479 1.388.313-.125-1.641a.251.251 0 0 1 .23-.269.253.253 0 0 1 .269.23l.137 1.794 1.537.348c.477-.021.983-.032 1.5-.053l-.029-2.309a.25.25 0 0 1 .247-.253c.144-.026.25.109.253.247l.028 2.288c1.207-.069 2.458-.245 3.611-.771-.006-.018-.023-.03-.026-.05l-.253-2.166a.25.25 0 0 1 .497-.057l.239 2.047c.325-.181.642-.386.942-.64.599-.775 1.559-5.029.876-8.511-.498 1.109-1.386 2.023-2.663 2.453zm-4.955 7.396a.252.252 0 0 1-.306-.178l-.407-1.522a.25.25 0 1 1 .483-.129l.407 1.522a.25.25 0 0 1-.177.307zm3.936-.019a.25.25 0 0 1-.286-.209l-.351-2.278a.25.25 0 0 1 .209-.285.254.254 0 0 1 .285.209l.351 2.278a.248.248 0 0 1-.208.285z"></path><path d="M49.375 30.356c.048-.789.399-3.3-.036-3.96l-.144-.509a12.829 12.829 0 0 0-2.448-.699l-.166.569-.731 4.6c1.8.179 3.525-.001 3.525-.001zM39.476 26.05a2.76 2.76 0 0 0-.298.627v.111s-.513 2.768 6.071 3.568l.755-4.749-.019-.715c-2.521-.542-5.464-.65-6.509 1.158zM31.88 68.854l6.014.071c1.865-4.639 9.399-10.341 9.399-10.341.957-1.56-1.273-6.758-1.273-6.758l-.004-.013c.082.56-.431 1.208-1.639 2.485-4.055 4.189-11.632 8.113-12.497 14.556zm13.769-12.033a.247.247 0 0 1 .349.054l.951 1.298a.249.249 0 0 1-.201.397.25.25 0 0 1-.202-.103l-.951-1.298a.248.248 0 0 1 .054-.348zm-1.851 1.607a.25.25 0 0 1 .351-.041l1.175.933a.25.25 0 0 1-.155.446.25.25 0 0 1-.155-.054l-1.175-.933a.249.249 0 0 1-.041-.351zm-1.673 1.69a.251.251 0 0 1 .352-.03l1.051.887a.25.25 0 0 1-.322.382l-1.051-.887a.25.25 0 0 1-.03-.352zm-1.752 1.327a.25.25 0 0 1 .354-.011l1.384 1.304a.25.25 0 0 1-.171.433.245.245 0 0 1-.171-.068l-1.384-1.304a.25.25 0 0 1-.012-.354zm-1.791 1.909a.25.25 0 0 1 .334-.114l1.59.783a.25.25 0 0 1-.11.474.24.24 0 0 1-.11-.026l-1.59-.783a.25.25 0 0 1-.114-.334zm-1.672 1.659a.25.25 0 0 1 .333-.12l1.579.742a.25.25 0 0 1-.212.453l-1.579-.742a.249.249 0 0 1-.121-.333zm.707 2.385a.25.25 0 1 1-.134.482l-1.583-.44a.25.25 0 1 1 .134-.481l1.583.439zM54.161 44.434c-.187-1.562-2.258-4.044-3.621-5.243.974 1.084-.363 2.588-4.287 3.735-3.414 1.055-4.461 1.483-5.205 2.616 0 0-.001.375.496 1.167s3.522 3.31 3.522 3.31c.017-.005 2.607-.651 5.02-1.766-.066-.009-.134-.032-.175-.092l-1.263-1.819a.25.25 0 0 1 .411-.285l1.263 1.819c.061.088.041.193-.017.277 1.989-.95 3.799-2.218 3.856-3.719zm-7.678 5.159a.252.252 0 0 1-.306-.178l-.539-2.013a.25.25 0 0 1 .177-.306.252.252 0 0 1 .306.177l.539 2.013a.25.25 0 0 1-.177.307zm1.604-.774a.252.252 0 0 1-.306-.178l-.452-1.69a.25.25 0 0 1 .177-.306.252.252 0 0 1 .306.177l.452 1.69a.25.25 0 0 1-.177.307zm3.349-4.64a.252.252 0 0 1 .351-.042l1.531 1.208a.25.25 0 0 1 .042.351.251.251 0 0 1-.351.041l-1.531-1.208a.248.248 0 0 1-.042-.35zm-1.576 1.453a.25.25 0 1 1 .347-.361l1.51 1.451a.25.25 0 1 1-.346.361l-1.511-1.451z"></path><path d="M50.54 39.191a2.147 2.147 0 0 0-.474-.39c.142.104.305.241.474.39z"></path></g><!----><g data-v-423bf9ae="" id="83c5a8cd-aa78-43cf-ba7c-8e58ffec3a32" fill="black" transform="matrix(0.46454048345399107,0,0,0.46454048345399107,114.62448937654143,59.024465578706526)"><path d="M6.71 3.70L9.21 11.48L10.40 11.48L13.29 2.21L12.18 2.21L9.80 10.00L7.31 2.21L6.10 2.21L3.61 10.00L1.23 2.21L0.13 2.21L3.01 11.48L4.20 11.48ZM28.36 3.22L28.36 2.21L21.55 2.21L21.55 11.48L28.36 11.48L28.36 10.47L22.60 10.47L22.60 7.35L27.75 7.35L27.75 6.33L22.60 6.33L22.60 3.22ZM41.22 2.21L39.90 2.21L35.97 11.48L37.13 11.48L38.26 8.79L42.85 8.79L43.99 11.48L45.15 11.48ZM38.67 7.83L40.56 3.30L42.45 7.83ZM54.38 7.92L57.60 7.92L59.84 11.48L61.08 11.48L58.65 7.74C59.68 7.50 60.89 6.90 60.89 5.11C60.89 3.35 59.67 2.21 57.76 2.21L53.33 2.21L53.33 11.48L54.38 11.48ZM54.38 3.21L57.64 3.21C58.95 3.21 59.84 3.93 59.84 5.11C59.84 6.55 58.58 6.93 57.58 6.93L54.38 6.93ZM83.83 2.21L82.52 2.21L78.58 11.48L79.74 11.48L80.88 8.79L85.47 8.79L86.60 11.48L87.77 11.48ZM81.28 7.83L83.17 3.30L85.06 7.83ZM102.89 2.21L102.89 10.01L97.16 2.21L95.94 2.21L95.94 11.48L96.99 11.48L96.99 3.65L102.72 11.48L103.94 11.48L103.94 2.21ZM117.11 2.21L113.20 2.21L113.20 11.48L117.11 11.48C119.32 11.48 121.37 9.74 121.37 6.85C121.37 3.95 119.32 2.21 117.11 2.21ZM117.07 10.49L114.25 10.49L114.25 3.21L117.07 3.21C119.04 3.21 120.32 4.86 120.32 6.85C120.32 8.83 119.04 10.49 117.07 10.49ZM140.66 4.65C140.66 4.03 141.02 3.08 143.12 3.08C144.82 3.08 145.60 3.82 145.71 4.75L146.79 4.75C146.71 3.36 145.59 2.10 143.12 2.10C140.80 2.10 139.64 3.15 139.64 4.66C139.64 7.84 145.98 6.69 145.98 8.96C145.98 10.05 145.00 10.60 143.43 10.60C141.82 10.60 140.52 10.05 140.45 8.71L139.36 8.71C139.50 10.37 140.62 11.59 143.36 11.59C145.64 11.59 147.03 10.64 147.03 8.92C147.03 5.68 140.66 6.80 140.66 4.65ZM162.47 3.22L162.47 2.21L155.65 2.21L155.65 11.48L162.47 11.48L162.47 10.47L156.70 10.47L156.70 7.35L161.85 7.35L161.85 6.33L156.70 6.33L156.70 3.22ZM177.74 2.21L170.23 2.21L170.23 3.22L173.46 3.22L173.46 11.48L174.51 11.48L174.51 3.22L177.74 3.22ZM202.64 2.21L195.12 2.21L195.12 3.22L198.35 3.22L198.35 11.48L199.40 11.48L199.40 3.22L202.64 3.22ZM212.02 7.92L215.24 7.92L217.48 11.48L218.72 11.48L216.29 7.74C217.32 7.50 218.53 6.90 218.53 5.11C218.53 3.35 217.31 2.21 215.40 2.21L210.97 2.21L210.97 11.48L212.02 11.48ZM212.02 3.21L215.28 3.21C216.59 3.21 217.48 3.93 217.48 5.11C217.48 6.55 216.22 6.93 215.22 6.93L212.02 6.93ZM234.15 3.22L234.15 2.21L227.33 2.21L227.33 11.48L234.15 11.48L234.15 10.47L228.38 10.47L228.38 7.35L233.53 7.35L233.53 6.33L228.38 6.33L228.38 3.22ZM249.79 2.21L249.79 10.01L244.06 2.21L242.84 2.21L242.84 11.48L243.89 11.48L243.89 3.65L249.62 11.48L250.84 11.48L250.84 2.21ZM264.01 2.21L260.11 2.21L260.11 11.48L264.01 11.48C266.22 11.48 268.27 9.74 268.27 6.85C268.27 3.95 266.22 2.21 264.01 2.21ZM263.97 10.49L261.16 10.49L261.16 3.21L263.97 3.21C265.94 3.21 267.22 4.86 267.22 6.85C267.22 8.83 265.94 10.49 263.97 10.49ZM277.58 4.65C277.58 4.03 277.94 3.08 280.04 3.08C281.74 3.08 282.52 3.82 282.63 4.75L283.71 4.75C283.63 3.36 282.51 2.10 280.04 2.10C277.72 2.10 276.56 3.15 276.56 4.66C276.56 7.84 282.90 6.69 282.90 8.96C282.90 10.05 281.92 10.60 280.35 10.60C278.74 10.60 277.44 10.05 277.37 8.71L276.28 8.71C276.42 10.37 277.54 11.59 280.28 11.59C282.56 11.59 283.95 10.64 283.95 8.92C283.95 5.68 277.58 6.80 277.58 4.65Z"></path></g></svg>